<?xml version="1.0" encoding="UTF-8" standalone="no"?>
<svg
   xmlns:dc="http://purl.org/dc/elements/1.1/"
   xmlns:cc="http://creativecommons.org/ns#"
   xmlns:rdf="http://www.w3.org/1999/02/22-rdf-syntax-ns#"
   xmlns:svg="http://www.w3.org/2000/svg"
   xmlns="http://www.w3.org/2000/svg"
   id="svg827"
   viewBox="0 0 1000 1000"
   height="1000"
   width="1000"
   version="1.1">
  <metadata
     id="metadata833">
    <rdf:RDF>
      <cc:Work
         rdf:about="">
        <dc:format>image/svg+xml</dc:format>
        <dc:type
           rdf:resource="http://purl.org/dc/dcmitype/StillImage" />
        <dc:title></dc:title>
      </cc:Work>
    </rdf:RDF>
  </metadata>
  <defs
     id="defs831" />
  <g
     transform="translate(3.484375,3.484375)"
     style="display:none"
     id="layer1">
    <path
       style="fill:#000000;fill-opacity:0.328283"
       id="path825"
       d="M 19,6.41 17.59,5 12,10.59 6.41,5 5,6.41 10.59,12 5,17.59 6.41,19 12,13.41 17.59,19 19,17.59 13.41,12 Z" />
  </g>
  <g
     transform="translate(3.484375,3.484375)"
     style="display:inline"
     id="layer2">
    <path
       d="M 143.07252,8.6048577 C 94.220225,57.457158 45.367925,106.30946 -3.484375,155.16176 110.30024,268.94637 224.08486,382.73099 337.86947,496.5156 224.08486,610.30022 110.30024,724.08484 -3.484375,837.86945 49.397669,890.75148 102.27971,943.63355 155.16176,996.51562 268.94637,882.73097 382.73099,768.94635 496.5156,655.16174 610.30022,768.94635 724.08484,882.73097 837.86945,996.51562 890.75148,943.63355 943.63355,890.75148 996.51562,837.86945 882.73097,724.08484 768.94635,610.30022 655.16174,496.5156 768.94635,382.73099 882.73097,268.94637 996.51562,155.16176 943.63355,102.27971 890.75148,49.397669 837.86945,-3.484375 724.08484,110.30024 610.30022,224.08486 496.5156,337.86947 382.73099,224.08486 268.94637,110.30024 155.16176,-3.484375 151.13201,0.54536952 147.10227,4.5751132 143.07252,8.6048577 Z"
       style="fill:#c1c8d6;fill-opacity:1;stroke-width:61.0664"
       id="path4546" />
  </g>
</svg>
