<?xml version="1.0" encoding="UTF-8" standalone="no"?>
<svg
   xmlns:dc="http://purl.org/dc/elements/1.1/"
   xmlns:cc="http://creativecommons.org/ns#"
   xmlns:rdf="http://www.w3.org/1999/02/22-rdf-syntax-ns#"
   xmlns:svg="http://www.w3.org/2000/svg"
   xmlns="http://www.w3.org/2000/svg"
   id="svg850"
   width="1000"
   height="999.99982"
   viewBox="0 0 264.58332 264.58327"
   version="1.1">
  <metadata
     id="metadata856">
    <rdf:RDF>
      <cc:Work
         rdf:about="">
        <dc:format>image/svg+xml</dc:format>
        <dc:type
           rdf:resource="http://purl.org/dc/dcmitype/StillImage" />
        <dc:title></dc:title>
      </cc:Work>
    </rdf:RDF>
  </metadata>
  <defs
     id="defs854" />
  <path
     id="path1421"
     d="M 30.337359,2.4853144e-8 C 30.279359,6.2113874e-6 30.223465,0.01893551 30.165485,0.01926948 c -0.169833,9.7577e-4 -0.332453,0.04632354 -0.501954,0.05010058 -1.58542,0.03386931 -3.16372,0.2024219 -4.738279,0.48366337 -0.320618,0.0574959 -0.648741,0.0673514 -0.966796,0.13488618 -0.291536,0.0618745 -0.565887,0.17632305 -0.855468,0.24664905 -1.357155,0.32865634 -2.690713,0.76139364 -4.009763,1.28141894 -0.372094,0.1468265 -0.75521,0.2530762 -1.121094,0.4142932 -0.137882,0.060715 -0.282648,0.093202 -0.419922,0.1560827 -0.115023,0.052697 -0.227708,0.1060277 -0.337889,0.1580095 -0.0022,0.00103 -0.0037,0.00283 -0.0059,0.00386 l 0.04102,0.082858 C 13.868501,4.6313758 10.740035,6.7681624 8.1303398,9.5306732 -3.2726589,21.598169 -2.5981252,40.612502 9.632292,51.863742 L 97.07951,132.2906 9.632292,212.71939 c -12.2304083,11.25123 -12.9049418,30.26557 -1.5019522,42.33307 2.6614502,2.8167 5.7780602,4.95081 9.1074172,6.51885 l -0.03125,0.0636 c 0.0027,9.8e-4 0.0051,0.003 0.0078,0.004 0.0092,0.004 0.01817,0.009 0.02734,0.0135 0.10605,0.05 0.209735,0.0992 0.308592,0.14453 v -0.002 l 0.01758,-0.0366 c 5.1e-4,2.4e-4 0.0014,-2.3e-4 0.002,0 l -0.01758,0.0386 c 0.08168,0.0374 0.168104,0.0558 0.25,0.0924 0.23134,0.10301 0.473588,0.16501 0.707032,0.26206 1.459941,0.61032 2.945736,1.09539 4.455075,1.46833 0.203088,0.0498 0.395675,0.13737 0.599609,0.18306 0.351542,0.0795 0.710233,0.0987 1.064453,0.16572 1.297116,0.24493 2.594764,0.39974 3.902341,0.47596 0.390539,0.023 0.774886,0.063 1.166016,0.0713 0.0026,5e-5 0.0052,-6e-5 0.0078,0 0.0072,1.4e-4 0.0143,0.002 0.02148,0.002 0.205924,0.004 0.405143,0.0655 0.611328,0.0655 H 234.22005 c 16.72391,6.7e-4 30.36333,-13.45456 30.36327,-29.95436 6e-5,-16.49979 -13.63933,-29.95321 -30.36327,-29.95245 H 107.4252 l 54.87888,-50.47634 c 12.83196,-11.80724 12.83196,-32.00765 0,-43.81489 L 107.4252,59.90874 h 126.79485 c 16.72394,7.67e-4 30.36333,-13.454565 30.36327,-29.95437 C 264.58338,13.454584 250.94396,-6.6772736e-4 234.22005,2.4853144e-8 H 30.347124 Z M 50.210396,7.3917635 H 234.22005 c 12.67534,-5.061e-4 22.87113,10.0571905 22.87109,22.5626065 4e-5,12.505442 -10.19577,22.563188 -22.87109,22.562607 h -134.829994 -0.002 L 51.038519,8.0449981 c -6.73e-4,-6.196e-4 -0.0013,-0.00131 -0.002,-0.00192 C 50.775575,7.8031232 50.478204,7.6213019 50.210349,7.3917666 Z M 28.34322,7.6056545 c 1.633098,-0.141204 3.267782,-0.1493947 4.882809,0.053954 0.323289,0.04083 0.65416,0.036284 0.974609,0.090567 1.900991,0.3221955 3.747033,0.921449 5.519528,1.7111277 0.716403,0.3193746 1.422575,0.6586698 2.103515,1.0501848 0.323179,0.18598 0.653686,0.354426 0.96875,0.556887 1.101961,0.707571 2.162591,1.485726 3.136717,2.381705 l 50.509737,46.45866 60.755815,55.88142 c 9.73612,8.95862 9.73539,24.04373 0,33.0028 l -60.755815,55.88335 -50.507784,46.45673 h -0.002 c -0.01167,0.0108 -0.02542,0.0183 -0.03711,0.0289 -1.021337,0.93522 -2.123127,1.72411 -3.253904,2.44144 -0.38107,0.24069 -0.775375,0.4519 -1.167969,0.66865 -0.596379,0.33061 -1.213217,0.59947 -1.830077,0.87291 -3.550524,1.56629 -7.426533,2.16717 -11.296868,1.83252 -0.784469,-0.0684 -1.572134,-0.10496 -2.343749,-0.25243 -0.363762,-0.0696 -0.726344,-0.14185 -1.087891,-0.2293 -1.415824,-0.34224 -2.811148,-0.77618 -4.142575,-1.38162 -2.619125,-1.19565 -5.063868,-2.88206 -7.160152,-5.10063 -8.642476,-9.14611 -8.1387288,-23.36156 1.130858,-31.88902 L 108.06387,132.28868 14.739711,46.45866 C 5.4701173,37.931198 4.96637,23.71575 13.608853,14.569636 15.703406,12.352432 18.216729,10.62403 20.958458,9.4054217 21.977174,8.9528524 23.047218,8.6513109 24.11666,8.3513825 24.436125,8.2617495 24.740269,8.130561 25.063924,8.0546328 25.375097,7.9815888 25.686694,7.9179512 25.999471,7.8580844 26.771086,7.7106214 27.55875,7.6740568 28.34322,7.6056545 Z M 99.390056,212.06615 h 0.002 134.828044 c 12.67531,-5.8e-4 22.87113,10.0572 22.87109,22.56261 4e-5,12.50544 -10.19574,22.56311 -22.87109,22.56261 H 50.210396 c 0.25588,-0.21928 0.539481,-0.39364 0.789061,-0.62241 0.01168,-0.0108 0.02544,-0.0181 0.03711,-0.0289 z"
     style="color:#000000;font-style:normal;font-variant:normal;font-weight:normal;font-stretch:normal;font-size:medium;line-height:normal;font-family:sans-serif;font-variant-ligatures:normal;font-variant-position:normal;font-variant-caps:normal;font-variant-numeric:normal;font-variant-alternates:normal;font-variant-east-asian:normal;font-feature-settings:normal;font-variation-settings:normal;text-indent:0;text-align:start;text-decoration:none;text-decoration-line:none;text-decoration-style:solid;text-decoration-color:#000000;letter-spacing:normal;word-spacing:normal;text-transform:none;writing-mode:lr-tb;direction:ltr;text-orientation:mixed;dominant-baseline:auto;baseline-shift:baseline;text-anchor:start;white-space:normal;shape-padding:0;shape-margin:0;inline-size:0;clip-rule:nonzero;display:inline;overflow:visible;visibility:visible;opacity:1;isolation:auto;mix-blend-mode:normal;color-interpolation:sRGB;color-interpolation-filters:linearRGB;solid-color:#000000;solid-opacity:1;vector-effect:none;fill:#43474f;fill-opacity:1;fill-rule:nonzero;stroke:none;stroke-width:7.44074;stroke-linecap:round;stroke-linejoin:miter;stroke-miterlimit:4;stroke-dasharray:none;stroke-dashoffset:0;stroke-opacity:1;color-rendering:auto;image-rendering:auto;shape-rendering:auto;text-rendering:auto;enable-background:accumulate;stop-color:#000000;stop-opacity:1" />
</svg>
