<?xml version="1.0" encoding="UTF-8" standalone="no"?>
<svg
   xmlns="http://www.w3.org/2000/svg"
   version="1.1"
   viewBox="0 0 135.46666 135.46667"
   height="512"
   width="512">
    <path
       d="M 52.134285,32.048603 29.698963,11.132573 C 26.1029,7.7808933 20.834435,6.9426633 16.375744,9.0128033 c 1.593742,-0.7402 3.329786,-1.12377 5.087028,-1.12396 h 92.536988 c 6.67174,-2.7e-4 12.08042,5.4081397 12.0804,12.0798797 2e-5,6.67175 -5.40866,12.08019 -12.0804,12.07988 z M 16.375744,9.0128033 c -0.04544,0.0211 -0.09074,0.0424 -0.135909,0.0641 0.04517,-0.0216 0.09047,-0.043 0.135909,-0.0641 z m 5.091053,-1.1241314 a 12.07985,12.07985 0 0 0 -8.839844,3.8437501 12.07985,12.07985 0 0 0 0.597656,17.072266 L 54.248047,67.046875 13.224609,105.29102 a 12.07985,12.07985 0 0 0 -0.597656,17.07226 12.07985,12.07985 0 0 0 17.072266,0.59961 l 50.5,-47.080078 a 12.081058,12.081058 0 0 0 0,-17.669921 l -50.5,-47.080079 A 12.07985,12.07985 0 0 0 21.466797,7.8886719 Z M 52.134285,102.047 29.698963,122.96304 c -3.596063,3.35167 -8.864528,4.1899 -13.323219,2.11976 1.593742,0.7402 3.329786,1.12377 5.087028,1.12396 h 92.536988 c 6.67174,2.7e-4 12.08042,-5.40813 12.0804,-12.07988 2e-5,-6.67174 -5.40866,-12.08019 -12.0804,-12.07988 z m -35.758541,23.0358 c -0.04544,-0.0211 -0.09074,-0.0424 -0.135909,-0.0641 0.04517,0.0216 0.09047,0.043 0.135909,0.0641 z"
       style="fill:none;stroke:#43474f;stroke-width:3.4;stroke-linecap:round;stroke-linejoin:miter;stroke-miterlimit:4;stroke-opacity:1"
       id="icon" />
</svg>
